<?xml version="1.0" encoding="utf-8"?>
<!-- Generator: Adobe Illustrator 22.0.1, SVG Export Plug-In . SVG Version: 6.00 Build 0)  -->
<svg version="1.1" id="Layer_1" xmlns="http://www.w3.org/2000/svg" xmlns:xlink="http://www.w3.org/1999/xlink" x="0px" y="0px"
	 viewBox="0 0 60 60" style="enable-background:new 0 0 60 60;" xml:space="preserve">
<style type="text/css">
	.st0{fill:url(#SVGID_1_);}
	.st1{fill:url(#SVGID_2_);}
	.st2{fill:url(#SVGID_3_);}
	.st3{fill:url(#SVGID_4_);}
	.st4{fill:url(#SVGID_5_);}
	.st5{fill:url(#SVGID_6_);}
	.st6{fill:url(#SVGID_7_);}
	.st7{fill:url(#SVGID_8_);}
	.st8{fill:url(#SVGID_9_);}
	.st9{fill:url(#SVGID_10_);}
	.st10{fill:url(#SVGID_11_);}
	.st11{fill:url(#SVGID_12_);}
	.st12{fill:url(#SVGID_13_);}
	.st13{fill:url(#SVGID_14_);}
	.st14{fill:url(#SVGID_15_);}
	.st15{fill:url(#SVGID_16_);}
	.st16{fill:url(#SVGID_17_);}
	.st17{fill:url(#SVGID_18_);}
	.st18{fill:url(#SVGID_19_);}
	.st19{fill:url(#SVGID_20_);}
	.st20{fill:url(#SVGID_21_);}
	.st21{fill:url(#SVGID_22_);}
	.st22{fill:url(#SVGID_23_);}
	.st23{fill:url(#SVGID_24_);}
	.st24{fill:url(#SVGID_25_);}
	.st25{fill:url(#SVGID_26_);}
	.st26{fill:url(#SVGID_27_);}
	.st27{fill:url(#SVGID_28_);}
	.st28{fill:url(#SVGID_29_);}
	.st29{fill:url(#SVGID_30_);}
	.st30{fill:url(#SVGID_31_);}
	.st31{fill:url(#SVGID_32_);}
	.st32{fill:url(#SVGID_33_);}
	.st33{fill:url(#SVGID_34_);}
	.st34{fill:url(#SVGID_35_);}
	.st35{fill:url(#SVGID_36_);}
	.st36{fill:url(#SVGID_37_);}
	.st37{fill:url(#SVGID_38_);}
	.st38{fill:url(#SVGID_39_);}
	.st39{fill:url(#SVGID_40_);}
	.st40{fill:url(#SVGID_41_);}
	.st41{fill:url(#SVGID_42_);}
	.st42{fill:url(#SVGID_43_);}
	.st43{fill:url(#SVGID_44_);}
	.st44{fill:url(#SVGID_45_);}
	.st45{fill:url(#SVGID_46_);}
	.st46{fill:url(#SVGID_47_);}
	.st47{fill:url(#SVGID_48_);}
	.st48{fill:url(#SVGID_49_);}
	.st49{fill:url(#SVGID_50_);}
	.st50{fill:url(#SVGID_51_);}
	.st51{fill:url(#SVGID_52_);}
</style>
<g id="_x31_2">
	<g>
		<linearGradient id="SVGID_1_" gradientUnits="userSpaceOnUse" x1="-52.0796" y1="35.4204" x2="-16.2318" y2="-0.4273">
			<stop  offset="0" style="stop-color:#4FAFCC"/>
			<stop  offset="0.9995" style="stop-color:#2B6FF5"/>
		</linearGradient>
		<path class="st0" d="M-15.9,51.8h-58.3V4.9h58.3V51.8z M-72.7,50.3h55.3V6.4h-55.3V50.3z"/>
	</g>
	<g>
		<linearGradient id="SVGID_2_" gradientUnits="userSpaceOnUse" x1="-61.7986" y1="25.7014" x2="-25.9508" y2="-10.1464">
			<stop  offset="0" style="stop-color:#4FAFCC"/>
			<stop  offset="0.9995" style="stop-color:#2B6FF5"/>
		</linearGradient>
		<rect x="-74.2" y="11.2" class="st1" width="52.3" height="1.5"/>
	</g>
	<g>
		<linearGradient id="SVGID_3_" gradientUnits="userSpaceOnUse" x1="-73.723" y1="13.777" x2="-37.8752" y2="-22.0707">
			<stop  offset="0" style="stop-color:#4FAFCC"/>
			<stop  offset="0.9995" style="stop-color:#2B6FF5"/>
		</linearGradient>
		<rect x="-69.9" y="8.2" class="st2" width="2" height="1.5"/>
	</g>
	<g>
		<linearGradient id="SVGID_4_" gradientUnits="userSpaceOnUse" x1="-71.6754" y1="15.8246" x2="-35.8276" y2="-20.0232">
			<stop  offset="0" style="stop-color:#4FAFCC"/>
			<stop  offset="0.9995" style="stop-color:#2B6FF5"/>
		</linearGradient>
		<rect x="-65.8" y="8.2" class="st3" width="2" height="1.5"/>
	</g>
	<g>
		<linearGradient id="SVGID_5_" gradientUnits="userSpaceOnUse" x1="-69.6278" y1="17.8722" x2="-33.7801" y2="-17.9756">
			<stop  offset="0" style="stop-color:#4FAFCC"/>
			<stop  offset="0.9995" style="stop-color:#2B6FF5"/>
		</linearGradient>
		<rect x="-61.7" y="8.2" class="st4" width="2" height="1.5"/>
	</g>
	<g>
		<linearGradient id="SVGID_6_" gradientUnits="userSpaceOnUse" x1="-54.8092" y1="32.6908" x2="-18.9615" y2="-3.157">
			<stop  offset="0" style="stop-color:#4FAFCC"/>
			<stop  offset="0.9995" style="stop-color:#2B6FF5"/>
		</linearGradient>
		<polygon class="st5" points="-21.9,29.2 -23.4,29.2 -23.4,18.2 -66.7,18.2 -66.7,27.7 -25.9,27.7 -25.9,29.2 -68.2,29.2 
			-68.2,16.7 -21.9,16.7 		"/>
	</g>
	<g>
		<linearGradient id="SVGID_7_" gradientUnits="userSpaceOnUse" x1="-56.7808" y1="30.7192" x2="-20.933" y2="-5.1285">
			<stop  offset="0" style="stop-color:#4FAFCC"/>
			<stop  offset="0.9995" style="stop-color:#2B6FF5"/>
		</linearGradient>
		<path class="st6" d="M-55.5,39.1h-12.7v-6.6h12.7V39.1z M-66.7,37.6h9.7V34h-9.7V37.6z"/>
	</g>
	<g>
		<linearGradient id="SVGID_8_" gradientUnits="userSpaceOnUse" x1="-48.3844" y1="39.1156" x2="-12.5366" y2="3.2678">
			<stop  offset="0" style="stop-color:#4FAFCC"/>
			<stop  offset="0.9995" style="stop-color:#2B6FF5"/>
		</linearGradient>
		<path class="st7" d="M-38.7,39.1h-12.7v-6.6h12.7V39.1z M-49.9,37.6h9.7V34h-9.7V37.6z"/>
	</g>
	<g>
		<linearGradient id="SVGID_9_" gradientUnits="userSpaceOnUse" x1="-39.9884" y1="47.5116" x2="-4.1407" y2="11.6638">
			<stop  offset="0" style="stop-color:#4FAFCC"/>
			<stop  offset="0.9995" style="stop-color:#2B6FF5"/>
		</linearGradient>
		<path class="st8" d="M-21.9,39.1h-12.7v-6.6h12.7V39.1z M-33.1,37.6h9.7V34h-9.7V37.6z"/>
	</g>
	<g>
		<linearGradient id="SVGID_10_" gradientUnits="userSpaceOnUse" x1="-53.661" y1="33.839" x2="-17.8132" y2="-2.0088">
			<stop  offset="0" style="stop-color:#4FAFCC"/>
			<stop  offset="0.9995" style="stop-color:#2B6FF5"/>
		</linearGradient>
		<rect x="-68.2" y="41.3" class="st9" width="12.7" height="1.5"/>
	</g>
	<g>
		<linearGradient id="SVGID_11_" gradientUnits="userSpaceOnUse" x1="-53.1787" y1="34.3213" x2="-17.331" y2="-1.5265">
			<stop  offset="0" style="stop-color:#4FAFCC"/>
			<stop  offset="0.9995" style="stop-color:#2B6FF5"/>
		</linearGradient>
		<rect x="-68.2" y="44.9" class="st10" width="7.2" height="1.5"/>
	</g>
	<g>
		<linearGradient id="SVGID_12_" gradientUnits="userSpaceOnUse" x1="-45.2647" y1="42.2353" x2="-9.4169" y2="6.3876">
			<stop  offset="0" style="stop-color:#4FAFCC"/>
			<stop  offset="0.9995" style="stop-color:#2B6FF5"/>
		</linearGradient>
		<rect x="-51.4" y="41.3" class="st11" width="12.7" height="1.5"/>
	</g>
	<g>
		<linearGradient id="SVGID_13_" gradientUnits="userSpaceOnUse" x1="-44.7824" y1="42.7176" x2="-8.9346" y2="6.8698">
			<stop  offset="0" style="stop-color:#4FAFCC"/>
			<stop  offset="0.9995" style="stop-color:#2B6FF5"/>
		</linearGradient>
		<rect x="-51.4" y="44.9" class="st12" width="7.2" height="1.5"/>
	</g>
	<g>
		<linearGradient id="SVGID_14_" gradientUnits="userSpaceOnUse" x1="-36.8687" y1="50.6313" x2="-1.0209" y2="14.7836">
			<stop  offset="0" style="stop-color:#4FAFCC"/>
			<stop  offset="0.9995" style="stop-color:#2B6FF5"/>
		</linearGradient>
		<rect x="-34.6" y="41.3" class="st13" width="12.7" height="1.5"/>
	</g>
	<g>
		<linearGradient id="SVGID_15_" gradientUnits="userSpaceOnUse" x1="-36.3862" y1="51.1138" x2="-0.5384" y2="15.266">
			<stop  offset="0" style="stop-color:#4FAFCC"/>
			<stop  offset="0.9995" style="stop-color:#2B6FF5"/>
		</linearGradient>
		<rect x="-34.6" y="44.9" class="st14" width="7.2" height="1.5"/>
	</g>
</g>
<g id="_x31_2_1_">
	<g>
		<linearGradient id="SVGID_16_" gradientUnits="userSpaceOnUse" x1="-61.0796" y1="-2.5796" x2="-25.2318" y2="-38.4273">
			<stop  offset="0" style="stop-color:#4FAFCC"/>
			<stop  offset="0.9995" style="stop-color:#2B6FF5"/>
		</linearGradient>
		<path class="st15" d="M-24.9,13.8h-58.3v-46.9h58.3V13.8z M-81.7,12.3h55.3v-43.9h-55.3V12.3z"/>
	</g>
	<g>
		<linearGradient id="SVGID_17_" gradientUnits="userSpaceOnUse" x1="-70.7986" y1="-12.2986" x2="-34.9508" y2="-48.1464">
			<stop  offset="0" style="stop-color:#4FAFCC"/>
			<stop  offset="0.9995" style="stop-color:#2B6FF5"/>
		</linearGradient>
		<rect x="-83.2" y="-26.8" class="st16" width="52.3" height="1.5"/>
	</g>
	<g>
		<linearGradient id="SVGID_18_" gradientUnits="userSpaceOnUse" x1="-82.723" y1="-24.223" x2="-46.8752" y2="-60.0707">
			<stop  offset="0" style="stop-color:#4FAFCC"/>
			<stop  offset="0.9995" style="stop-color:#2B6FF5"/>
		</linearGradient>
		<rect x="-78.9" y="-29.8" class="st17" width="2" height="1.5"/>
	</g>
	<g>
		<linearGradient id="SVGID_19_" gradientUnits="userSpaceOnUse" x1="-80.6754" y1="-22.1754" x2="-44.8276" y2="-58.0232">
			<stop  offset="0" style="stop-color:#4FAFCC"/>
			<stop  offset="0.9995" style="stop-color:#2B6FF5"/>
		</linearGradient>
		<rect x="-74.8" y="-29.8" class="st18" width="2" height="1.5"/>
	</g>
	<g>
		<linearGradient id="SVGID_20_" gradientUnits="userSpaceOnUse" x1="-78.6278" y1="-20.1278" x2="-42.7801" y2="-55.9756">
			<stop  offset="0" style="stop-color:#4FAFCC"/>
			<stop  offset="0.9995" style="stop-color:#2B6FF5"/>
		</linearGradient>
		<rect x="-70.7" y="-29.8" class="st19" width="2" height="1.5"/>
	</g>
	<g>
		<linearGradient id="SVGID_21_" gradientUnits="userSpaceOnUse" x1="-63.8092" y1="-5.3092" x2="-27.9615" y2="-41.157">
			<stop  offset="0" style="stop-color:#4FAFCC"/>
			<stop  offset="0.9995" style="stop-color:#2B6FF5"/>
		</linearGradient>
		<polygon class="st20" points="-30.9,-8.8 -32.4,-8.8 -32.4,-19.8 -75.7,-19.8 -75.7,-10.3 -34.9,-10.3 -34.9,-8.8 -77.2,-8.8 
			-77.2,-21.3 -30.9,-21.3 		"/>
	</g>
	<g>
		<linearGradient id="SVGID_22_" gradientUnits="userSpaceOnUse" x1="-65.7808" y1="-7.2808" x2="-29.933" y2="-43.1285">
			<stop  offset="0" style="stop-color:#4FAFCC"/>
			<stop  offset="0.9995" style="stop-color:#2B6FF5"/>
		</linearGradient>
		<path class="st21" d="M-64.5,1.1h-12.7v-6.6h12.7V1.1z M-75.7-0.4h9.7V-4h-9.7V-0.4z"/>
	</g>
	<g>
		<linearGradient id="SVGID_23_" gradientUnits="userSpaceOnUse" x1="-57.3844" y1="1.1156" x2="-21.5366" y2="-34.7322">
			<stop  offset="0" style="stop-color:#4FAFCC"/>
			<stop  offset="0.9995" style="stop-color:#2B6FF5"/>
		</linearGradient>
		<path class="st22" d="M-47.7,1.1h-12.7v-6.6h12.7V1.1z M-58.9-0.4h9.7V-4h-9.7V-0.4z"/>
	</g>
	<g>
		<linearGradient id="SVGID_24_" gradientUnits="userSpaceOnUse" x1="-48.9884" y1="9.5116" x2="-13.1407" y2="-26.3362">
			<stop  offset="0" style="stop-color:#4FAFCC"/>
			<stop  offset="0.9995" style="stop-color:#2B6FF5"/>
		</linearGradient>
		<path class="st23" d="M-30.9,1.1h-12.7v-6.6h12.7V1.1z M-42.1-0.4h9.7V-4h-9.7V-0.4z"/>
	</g>
	<g>
		<linearGradient id="SVGID_25_" gradientUnits="userSpaceOnUse" x1="-62.661" y1="-4.161" x2="-26.8132" y2="-40.0088">
			<stop  offset="0" style="stop-color:#4FAFCC"/>
			<stop  offset="0.9995" style="stop-color:#2B6FF5"/>
		</linearGradient>
		<rect x="-77.2" y="3.3" class="st24" width="12.7" height="1.5"/>
	</g>
	<g>
		<linearGradient id="SVGID_26_" gradientUnits="userSpaceOnUse" x1="-62.1787" y1="-3.6787" x2="-26.331" y2="-39.5265">
			<stop  offset="0" style="stop-color:#4FAFCC"/>
			<stop  offset="0.9995" style="stop-color:#2B6FF5"/>
		</linearGradient>
		<rect x="-77.2" y="6.9" class="st25" width="7.2" height="1.5"/>
	</g>
	<g>
		<linearGradient id="SVGID_27_" gradientUnits="userSpaceOnUse" x1="-54.2647" y1="4.2353" x2="-18.4169" y2="-31.6124">
			<stop  offset="0" style="stop-color:#4FAFCC"/>
			<stop  offset="0.9995" style="stop-color:#2B6FF5"/>
		</linearGradient>
		<rect x="-60.4" y="3.3" class="st26" width="12.7" height="1.5"/>
	</g>
	<g>
		<linearGradient id="SVGID_28_" gradientUnits="userSpaceOnUse" x1="-53.7824" y1="4.7176" x2="-17.9346" y2="-31.1301">
			<stop  offset="0" style="stop-color:#4FAFCC"/>
			<stop  offset="0.9995" style="stop-color:#2B6FF5"/>
		</linearGradient>
		<rect x="-60.4" y="6.9" class="st27" width="7.2" height="1.5"/>
	</g>
	<g>
		<linearGradient id="SVGID_29_" gradientUnits="userSpaceOnUse" x1="-45.8687" y1="12.6313" x2="-10.0209" y2="-23.2164">
			<stop  offset="0" style="stop-color:#4FAFCC"/>
			<stop  offset="0.9995" style="stop-color:#2B6FF5"/>
		</linearGradient>
		<rect x="-43.6" y="3.3" class="st28" width="12.7" height="1.5"/>
	</g>
	<g>
		<linearGradient id="SVGID_30_" gradientUnits="userSpaceOnUse" x1="-45.3862" y1="13.1138" x2="-9.5384" y2="-22.734">
			<stop  offset="0" style="stop-color:#4FAFCC"/>
			<stop  offset="0.9995" style="stop-color:#2B6FF5"/>
		</linearGradient>
		<rect x="-43.6" y="6.9" class="st29" width="7.2" height="1.5"/>
	</g>
</g>
<g id="_x33_">
	<g>
		<linearGradient id="SVGID_31_" gradientUnits="userSpaceOnUse" x1="-74.8921" y1="37.9341" x2="-43.1982" y2="6.2403">
			<stop  offset="0" style="stop-color:#4FAFCC"/>
			<stop  offset="0.9995" style="stop-color:#2B6FF5"/>
		</linearGradient>
		<path class="st30" d="M-46.1,61.3H-104V14.8h57.8V61.3z M-102.5,59.9h54.9V16.3h-54.9V59.9z"/>
	</g>
	<g>
		<linearGradient id="SVGID_32_" gradientUnits="userSpaceOnUse" x1="-84.5341" y1="28.2921" x2="-52.8402" y2="-3.4017">
			<stop  offset="0" style="stop-color:#4FAFCC"/>
			<stop  offset="0.9995" style="stop-color:#2B6FF5"/>
		</linearGradient>
		<rect x="-104" y="21" class="st31" width="51.9" height="1.5"/>
	</g>
	<g>
		<linearGradient id="SVGID_33_" gradientUnits="userSpaceOnUse" x1="-96.3928" y1="16.4334" x2="-64.6989" y2="-15.2604">
			<stop  offset="0" style="stop-color:#4FAFCC"/>
			<stop  offset="0.9995" style="stop-color:#2B6FF5"/>
		</linearGradient>
		<rect x="-99.7" y="18" class="st32" width="2" height="1.5"/>
	</g>
	<g>
		<linearGradient id="SVGID_34_" gradientUnits="userSpaceOnUse" x1="-94.3616" y1="18.4646" x2="-62.6677" y2="-13.2292">
			<stop  offset="0" style="stop-color:#4FAFCC"/>
			<stop  offset="0.9995" style="stop-color:#2B6FF5"/>
		</linearGradient>
		<rect x="-95.6" y="18" class="st33" width="2" height="1.5"/>
	</g>
	<g>
		<linearGradient id="SVGID_35_" gradientUnits="userSpaceOnUse" x1="-92.33" y1="20.4962" x2="-60.6362" y2="-11.1977">
			<stop  offset="0" style="stop-color:#4FAFCC"/>
			<stop  offset="0.9995" style="stop-color:#2B6FF5"/>
		</linearGradient>
		<rect x="-91.6" y="18" class="st34" width="2" height="1.5"/>
	</g>
	<g>
		<linearGradient id="SVGID_36_" gradientUnits="userSpaceOnUse" x1="-89.3483" y1="23.4779" x2="-57.6544" y2="-8.2159">
			<stop  offset="0" style="stop-color:#4FAFCC"/>
			<stop  offset="0.9995" style="stop-color:#2B6FF5"/>
		</linearGradient>
		<rect x="-97.6" y="27.2" class="st35" width="7.6" height="1.5"/>
	</g>
	<g>
		<linearGradient id="SVGID_37_" gradientUnits="userSpaceOnUse" x1="-83.3124" y1="29.5138" x2="-51.6186" y2="-2.1801">
			<stop  offset="0" style="stop-color:#4FAFCC"/>
			<stop  offset="0.9995" style="stop-color:#2B6FF5"/>
		</linearGradient>
		<rect x="-97.6" y="37.9" class="st36" width="10.4" height="1.5"/>
	</g>
	<g>
		<linearGradient id="SVGID_38_" gradientUnits="userSpaceOnUse" x1="-71.5282" y1="41.298" x2="-39.8344" y2="9.6041">
			<stop  offset="0" style="stop-color:#4FAFCC"/>
			<stop  offset="0.9995" style="stop-color:#2B6FF5"/>
		</linearGradient>
		<rect x="-82.2" y="48.6" class="st37" width="5.3" height="1.5"/>
	</g>
	<g>
		<linearGradient id="SVGID_39_" gradientUnits="userSpaceOnUse" x1="-74.7802" y1="38.046" x2="-43.0863" y2="6.3521">
			<stop  offset="0" style="stop-color:#4FAFCC"/>
			<stop  offset="0.9995" style="stop-color:#2B6FF5"/>
		</linearGradient>
		<rect x="-97.6" y="53.9" class="st38" width="12.5" height="1.5"/>
	</g>
	<g>
		<linearGradient id="SVGID_40_" gradientUnits="userSpaceOnUse" x1="-87.2014" y1="25.6248" x2="-55.5075" y2="-6.069">
			<stop  offset="0" style="stop-color:#4FAFCC"/>
			<stop  offset="0.9995" style="stop-color:#2B6FF5"/>
		</linearGradient>
		<rect x="-97.6" y="32.6" class="st39" width="5.5" height="1.5"/>
	</g>
	<g>
		<linearGradient id="SVGID_41_" gradientUnits="userSpaceOnUse" x1="-77.8168" y1="35.0094" x2="-46.1229" y2="3.3155">
			<stop  offset="0" style="stop-color:#4FAFCC"/>
			<stop  offset="0.9995" style="stop-color:#2B6FF5"/>
		</linearGradient>
		<rect x="-84.2" y="37.9" class="st40" width="5.5" height="1.5"/>
	</g>
	<g>
		<linearGradient id="SVGID_42_" gradientUnits="userSpaceOnUse" x1="-83.5086" y1="29.3175" x2="-51.8148" y2="-2.3763">
			<stop  offset="0" style="stop-color:#4FAFCC"/>
			<stop  offset="0.9995" style="stop-color:#2B6FF5"/>
		</linearGradient>
		<rect x="-89.1" y="32.6" class="st41" width="3.1" height="1.5"/>
	</g>
	<g>
		<linearGradient id="SVGID_43_" gradientUnits="userSpaceOnUse" x1="-79.1972" y1="33.629" x2="-47.5033" y2="1.9352">
			<stop  offset="0" style="stop-color:#4FAFCC"/>
			<stop  offset="0.9995" style="stop-color:#2B6FF5"/>
		</linearGradient>
		<rect x="-97.6" y="48.6" class="st42" width="5.5" height="1.5"/>
	</g>
	<g>
		<linearGradient id="SVGID_44_" gradientUnits="userSpaceOnUse" x1="-75.3412" y1="37.485" x2="-43.6473" y2="5.7911">
			<stop  offset="0" style="stop-color:#4FAFCC"/>
			<stop  offset="0.9995" style="stop-color:#2B6FF5"/>
		</linearGradient>
		<rect x="-88.8" y="48.6" class="st43" width="3.1" height="1.5"/>
	</g>
	<g>
		<linearGradient id="SVGID_45_" gradientUnits="userSpaceOnUse" x1="-69.401" y1="43.4252" x2="-37.7071" y2="11.7313">
			<stop  offset="0" style="stop-color:#4FAFCC"/>
			<stop  offset="0.9995" style="stop-color:#2B6FF5"/>
		</linearGradient>
		<rect x="-82.2" y="53.9" class="st44" width="3.1" height="1.5"/>
	</g>
	<g>
		<linearGradient id="SVGID_46_" gradientUnits="userSpaceOnUse" x1="-77.8767" y1="34.9495" x2="-46.1829" y2="3.2556">
			<stop  offset="0" style="stop-color:#4FAFCC"/>
			<stop  offset="0.9995" style="stop-color:#2B6FF5"/>
		</linearGradient>
		<rect x="-91.1" y="43.2" class="st45" width="8.4" height="1.5"/>
	</g>
	<g>
		<linearGradient id="SVGID_47_" gradientUnits="userSpaceOnUse" x1="-82.456" y1="30.3701" x2="-50.7622" y2="-1.3237">
			<stop  offset="0" style="stop-color:#4FAFCC"/>
			<stop  offset="0.9995" style="stop-color:#2B6FF5"/>
		</linearGradient>
		<rect x="-97.6" y="43.2" class="st46" width="3.1" height="1.5"/>
	</g>
	<g>
		<linearGradient id="SVGID_48_" gradientUnits="userSpaceOnUse" x1="-68.9029" y1="43.9233" x2="-37.209" y2="12.2295">
			<stop  offset="0" style="stop-color:#4FAFCC"/>
			<stop  offset="0.9995" style="stop-color:#2B6FF5"/>
		</linearGradient>
		<polygon class="st47" points="-68.9,49 -73.3,43.9 -68.9,38.7 -67.8,39.7 -71.3,43.9 -67.8,48 		"/>
	</g>
	<g>
		<linearGradient id="SVGID_49_" gradientUnits="userSpaceOnUse" x1="-63.2954" y1="49.5308" x2="-31.6015" y2="17.837">
			<stop  offset="0" style="stop-color:#4FAFCC"/>
			<stop  offset="0.9995" style="stop-color:#2B6FF5"/>
		</linearGradient>
		<polygon class="st48" points="-57.5,49 -58.7,48 -55.2,43.9 -58.7,39.7 -57.5,38.7 -53.2,43.9 		"/>
	</g>
	<g>
		<linearGradient id="SVGID_50_" gradientUnits="userSpaceOnUse" x1="-66.0991" y1="46.7271" x2="-34.4053" y2="15.0332">
			<stop  offset="0" style="stop-color:#4FAFCC"/>
			<stop  offset="0.9995" style="stop-color:#2B6FF5"/>
		</linearGradient>
		<polygon class="st49" points="-64.6,50 -66,49.5 -61.9,37.7 -60.5,38.2 		"/>
	</g>
</g>
<g>
	<linearGradient id="SVGID_51_" gradientUnits="userSpaceOnUse" x1="30.1301" y1="13.4167" x2="30.1301" y2="51.2735">
		<stop  offset="0" style="stop-color:#4FAFCC"/>
		<stop  offset="0.9995" style="stop-color:#2B6FF5"/>
	</linearGradient>
	<path class="st50" d="M31.1,19.4V1h-2v18.4c-10.4,0.5-18.7,9.1-18.7,19.7c0,10.9,8.9,19.7,19.7,19.7s19.7-8.9,19.7-19.7
		C49.9,28.5,41.6,19.9,31.1,19.4z M30.1,57.2c-10,0-18.1-8.1-18.1-18.1c0-10,8.1-18.1,18.1-18.1c10,0,18.1,8.1,18.1,18.1
		C48.3,49.1,40.1,57.2,30.1,57.2z"/>
	<linearGradient id="SVGID_52_" gradientUnits="userSpaceOnUse" x1="30.1311" y1="13.4167" x2="30.1311" y2="51.2735">
		<stop  offset="0" style="stop-color:#4FAFCC"/>
		<stop  offset="0.9995" style="stop-color:#2B6FF5"/>
	</linearGradient>
	<path class="st51" d="M35.6,36.3l-5.4,5.4l-5.4-5.4c-0.3-0.3-0.8-0.3-1.1,0c-0.2,0.2-0.2,0.4-0.2,0.6s0.1,0.4,0.2,0.6l6,6
		c0.2,0.2,0.4,0.2,0.6,0.2s0.4-0.1,0.6-0.2l6-6c0.3-0.3,0.3-0.8,0-1.1C36.4,35.9,35.9,35.9,35.6,36.3z"/>
</g>
</svg>
