<?xml version="1.0" encoding="utf-8"?>
<!-- Generator: Adobe Illustrator 22.0.1, SVG Export Plug-In . SVG Version: 6.00 Build 0)  -->
<svg version="1.1" id="Layer_1" xmlns="http://www.w3.org/2000/svg" xmlns:xlink="http://www.w3.org/1999/xlink" x="0px" y="0px"
	 viewBox="0 0 60 60" style="enable-background:new 0 0 60 60;" xml:space="preserve">
<style type="text/css">
	.st0{fill:#FFFFFF;}
</style>
<g id="_x31_8">
	<g>
		<rect x="29.3" y="46.2" class="st0" width="1.5" height="10"/>
	</g>
	<g>
		<polygon class="st0" points="30,57 6.7,43.5 6.7,16.4 30,2.9 54,16.9 30.7,30.4 30.7,43.1 29.3,43.1 29.3,29.5 51.1,16.9 30,4.6 
			8.2,17.3 8.2,42.6 30,55.3 51.8,42.6 51.8,20.8 53.3,20.8 53.3,43.5 		"/>
	</g>
	<g>
		<polygon class="st0" points="19.5,33.1 18,33.1 18,23 30,16 41.1,22.5 40.4,23.7 30,17.7 19.5,23.8 		"/>
	</g>
	<g>
		<polygon class="st0" points="30,43.9 18.2,37 18.9,35.8 30,42.2 40.5,36.1 40.5,27.3 42,27.3 42,36.9 		"/>
	</g>
	<g>
		
			<rect x="44.4" y="34.4" transform="matrix(0.5115 -0.8593 0.8593 0.5115 -11.1616 57.7077)" class="st0" width="1.5" height="8.5"/>
	</g>
	<g>
		<rect x="6.6" y="39" transform="matrix(0.8693 -0.4942 0.4942 0.8693 -17.8739 11.7993)" class="st0" width="13.6" height="1.5"/>
	</g>
	<g>
		<rect x="29.3" y="3.8" class="st0" width="1.5" height="13.1"/>
	</g>
	<g>
		
			<rect x="20" y="13.9" transform="matrix(0.5026 -0.8645 0.8645 0.5026 -10.9217 30.1566)" class="st0" width="1.5" height="21.4"/>
	</g>
</g>
</svg>
