<?xml version="1.0" encoding="utf-8"?>
<!-- Generator: Adobe Illustrator 22.0.1, SVG Export Plug-In . SVG Version: 6.00 Build 0)  -->
<svg version="1.1" id="Layer_1" xmlns="http://www.w3.org/2000/svg" xmlns:xlink="http://www.w3.org/1999/xlink" x="0px" y="0px"
	 viewBox="0 0 60 60" style="enable-background:new 0 0 60 60;" xml:space="preserve">
<style type="text/css">
	.st0{fill:#FFFFFF;}
</style>
<g id="_x33_">
	<g>
		<path class="st0" d="M58.9,52.6H1V6.1h57.8V52.6z M2.5,51.2h54.9V7.6H2.5V51.2z"/>
	</g>
	<g>
		<rect x="1" y="12.3" class="st0" width="51.9" height="1.5"/>
	</g>
	<g>
		<rect x="5.3" y="9.3" class="st0" width="2" height="1.5"/>
	</g>
	<g>
		<rect x="9.4" y="9.3" class="st0" width="2" height="1.5"/>
	</g>
	<g>
		<rect x="13.4" y="9.3" class="st0" width="2" height="1.5"/>
	</g>
	<g>
		<rect x="7.4" y="18.5" class="st0" width="7.6" height="1.5"/>
	</g>
	<g>
		<rect x="7.4" y="29.2" class="st0" width="10.4" height="1.5"/>
	</g>
	<g>
		<rect x="22.8" y="39.9" class="st0" width="5.3" height="1.5"/>
	</g>
	<g>
		<rect x="7.4" y="45.2" class="st0" width="12.5" height="1.5"/>
	</g>
	<g>
		<rect x="7.4" y="23.9" class="st0" width="5.5" height="1.5"/>
	</g>
	<g>
		<rect x="20.8" y="29.2" class="st0" width="5.5" height="1.5"/>
	</g>
	<g>
		<rect x="15.9" y="23.9" class="st0" width="3.1" height="1.5"/>
	</g>
	<g>
		<rect x="7.4" y="39.9" class="st0" width="5.5" height="1.5"/>
	</g>
	<g>
		<rect x="16.2" y="39.9" class="st0" width="3.1" height="1.5"/>
	</g>
	<g>
		<rect x="22.8" y="45.2" class="st0" width="3.1" height="1.5"/>
	</g>
	<g>
		<rect x="13.9" y="34.5" class="st0" width="8.4" height="1.5"/>
	</g>
	<g>
		<rect x="7.4" y="34.5" class="st0" width="3.1" height="1.5"/>
	</g>
	<g>
		<polygon class="st0" points="36.1,40.3 31.7,35.2 36.1,30 37.2,31 33.7,35.2 37.2,39.3 		"/>
	</g>
	<g>
		<polygon class="st0" points="47.5,40.3 46.3,39.3 49.8,35.2 46.3,31 47.5,30 51.8,35.2 		"/>
	</g>
	<g>
		
			<rect x="35.5" y="34.4" transform="matrix(0.3285 -0.9445 0.9445 0.3285 -5.1563 63.0598)" class="st0" width="12.5" height="1.5"/>
	</g>
</g>
</svg>
