<?xml version="1.0" encoding="utf-8"?>
<!-- Generator: Adobe Illustrator 22.0.1, SVG Export Plug-In . SVG Version: 6.00 Build 0)  -->
<svg version="1.1" id="Layer_1" xmlns="http://www.w3.org/2000/svg" xmlns:xlink="http://www.w3.org/1999/xlink" x="0px" y="0px"
	 viewBox="0 0 60 60" style="enable-background:new 0 0 60 60;" xml:space="preserve">
<style type="text/css">
	.st0{fill:#FFFFFF;}
</style>
<g id="_x31_2">
	<g>
		<path class="st0" d="M59,52.9H0.7V6H59V52.9z M2.2,51.4h55.3V7.5H2.2V51.4z"/>
	</g>
	<g>
		<rect x="0.7" y="12.3" class="st0" width="52.3" height="1.5"/>
	</g>
	<g>
		<rect x="5" y="9.3" class="st0" width="2" height="1.5"/>
	</g>
	<g>
		<rect x="9.1" y="9.3" class="st0" width="2" height="1.5"/>
	</g>
	<g>
		<rect x="13.2" y="9.3" class="st0" width="2" height="1.5"/>
	</g>
	<g>
		<polygon class="st0" points="53,30.3 51.5,30.3 51.5,19.3 8.2,19.3 8.2,28.8 49,28.8 49,30.3 6.7,30.3 6.7,17.8 53,17.8 		"/>
	</g>
	<g>
		<path class="st0" d="M19.4,40.2H6.7v-6.6h12.7V40.2z M8.2,38.7h9.7v-3.6H8.2V38.7z"/>
	</g>
	<g>
		<path class="st0" d="M36.2,40.2H23.5v-6.6h12.7V40.2z M25,38.7h9.7v-3.6H25V38.7z"/>
	</g>
	<g>
		<path class="st0" d="M53,40.2H40.3v-6.6H53V40.2z M41.8,38.7h9.7v-3.6h-9.7V38.7z"/>
	</g>
	<g>
		<rect x="6.7" y="42.4" class="st0" width="12.7" height="1.5"/>
	</g>
	<g>
		<rect x="6.7" y="46.1" class="st0" width="7.2" height="1.5"/>
	</g>
	<g>
		<rect x="23.5" y="42.4" class="st0" width="12.7" height="1.5"/>
	</g>
	<g>
		<rect x="23.5" y="46.1" class="st0" width="7.2" height="1.5"/>
	</g>
	<g>
		<rect x="40.3" y="42.4" class="st0" width="12.7" height="1.5"/>
	</g>
	<g>
		<rect x="40.3" y="46.1" class="st0" width="7.2" height="1.5"/>
	</g>
</g>
</svg>
